HIERARCHY
ROOT Pelvis
{
	OFFSET 0.000000 0.000000 0.000000
	CHANNELS 6 Xposition Yposition Zposition Xrotation Yrotation Zrotation
	JOINT LeftUpLeg_virtual
	{
		OFFSET 0.000000 0.000000 0.000000
		CHANNELS 3 Xrotation Yrotation Zrotation
		JOINT LeftUpLeg
		{
			OFFSET 18.735201 -5.666702 -4.541200
			CHANNELS 3 Xrotation Yrotation Zrotation
			JOINT LeftLeg
			{
				OFFSET -0.021200 -31.938179 0.493100
				CHANNELS 3 Xrotation Yrotation Zrotation
				JOINT LeftFoot
				{
					OFFSET 0.021200 -31.938179 -4.336299
					CHANNELS 3 Xrotation Yrotation Zrotation
					JOINT LeftToeBase
					{
						OFFSET 0.943001 -26.722000 15.023500
						CHANNELS 3 Xrotation Yrotation Zrotation
						End Site
						{
							OFFSET 0 0 0
						}
					}
				}
			}
		}
	}
	JOINT RightUpLeg_virtual
	{
		OFFSET 0.000000 0.000000 0.000000
		CHANNELS 3 Xrotation Yrotation Zrotation
		JOINT RightUpLeg
		{
			OFFSET -18.735201 -5.666702 -4.541200
			CHANNELS 3 Xrotation Yrotation Zrotation
			JOINT RightLeg
			{
				OFFSET 0.018946 -31.938133 0.493100
				CHANNELS 3 Xrotation Yrotation Zrotation
				JOINT RightFoot
				{
					OFFSET -0.018946 -31.938126 -4.336299
					CHANNELS 3 Xrotation Yrotation Zrotation
					JOINT RightToeBase
					{
						OFFSET -0.943001 -26.722004 15.023500
						CHANNELS 3 Xrotation Yrotation Zrotation
						End Site
						{
							OFFSET 0 0 0
						}
					}
				}
			}
		}
	}
	JOINT Hips_virtual
	{
		OFFSET 0.000000 0.000000 0.000000
		CHANNELS 3 Xrotation Yrotation Zrotation
		JOINT Hips
		{
			OFFSET -0.000000 -0.000000 -0.000000
			CHANNELS 3 Xrotation Yrotation Zrotation
			JOINT Spine
			{
				OFFSET 0.000000 10.199997 -0.299500
				CHANNELS 3 Xrotation Yrotation Zrotation
				JOINT Spine1
				{
					OFFSET 0.000000 11.900002 -1.516600
					CHANNELS 3 Xrotation Yrotation Zrotation
					JOINT Spine2
					{
						OFFSET 0.000000 13.600006 -2.842500
						CHANNELS 3 Xrotation Yrotation Zrotation
						JOINT Neck_virtual
						{
							OFFSET 0.000000 0.000000 0.000000
							CHANNELS 3 Xrotation Yrotation Zrotation
							JOINT Neck
							{
								OFFSET 0.000000 9.624100 -2.890100
								CHANNELS 3 Xrotation Yrotation Zrotation
								JOINT Head
								{
									OFFSET 0.000000 14.068802 -1.351900
									CHANNELS 3 Xrotation Yrotation Zrotation
									End Site
									{
										OFFSET 0 0 0
									}
								}
							}
						}
						JOINT LeftShoulder_virtual
						{
							OFFSET 0.000000 0.000000 0.000000
							CHANNELS 3 Xrotation Yrotation Zrotation
							JOINT LeftShoulder
							{
								OFFSET 15.263000 10.923401 -0.547700
								CHANNELS 3 Xrotation Yrotation Zrotation
								JOINT LeftArm
								{
									OFFSET 25.438599 -2.830597 -13.032500
									CHANNELS 3 Xrotation Yrotation Zrotation
									JOINT LeftForeArm
									{
										OFFSET 29.960503 0.000000 0.000000
										CHANNELS 3 Xrotation Yrotation Zrotation
										JOINT LeftHand
										{
											OFFSET 27.849251 0.000000 0.000000
											CHANNELS 3 Xrotation Yrotation Zrotation
											End Site
											{
												OFFSET 0 0 0
											}
										}
									}
								}
							}
						}
						JOINT RightShoulder_virtual
						{
							OFFSET 0.000000 0.000000 0.000000
							CHANNELS 3 Xrotation Yrotation Zrotation
							JOINT RightShoulder
							{
								OFFSET -15.263000 10.923401 -0.547700
								CHANNELS 3 Xrotation Yrotation Zrotation
								JOINT RightArm
								{
									OFFSET -25.438599 -2.830597 -13.032500
									CHANNELS 3 Xrotation Yrotation Zrotation
									JOINT RightForeArm
									{
										OFFSET -29.960503 0.000000 0.000000
										CHANNELS 3 Xrotation Yrotation Zrotation
										JOINT RightHand
										{
											OFFSET -27.849251 0.000000 0.000000
											CHANNELS 3 Xrotation Yrotation Zrotation
											End Site
											{
												OFFSET 0 0 0
											}
										}
									}
								}
							}
						}
					}
				}
			}
		}
	}
}
MOTION
Frames: 4
Frame Time: 0.03333333
-5.999095 80.955849 11.021667 0.000000 0.000000 0.000000 14.213259 -4.213207 -2.903590 -59.410666 0.549999 1.171946 75.960036 4.318286 0.471334 -35.487860 21.581962 -13.357767 0.000000 0.000000 0.000000 13.947660 -3.244071 -2.687375 -51.342054 -7.974739 -7.119671 73.696163 -8.963764 -3.633475 -39.501532 -3.162852 12.740462 0.000000 0.000000 0.000000 14.422247 -3.176157 -2.767752 -0.856199 0.034461 -0.043053 14.876535 2.150841 0.778999 1.726088 4.577355 -1.953019 0.000000 0.000000 0.000000 -2.423825 3.734306 -1.473976 3.180481 -1.395215 3.413326 0.000000 0.000000 0.000000 -1.429256 3.787963 -1.068661 5.409293 -18.052233 0.276169 -77.731781 -38.329266 -73.481019 -165.379206 -76.702874 -173.593711 0.000000 0.000000 0.000000 -2.802279 4.283548 -1.760167 4.220106 18.109854 12.949822 -66.876561 53.558843 53.999920 80.507194 60.600792 -93.097165 0.000000 0.000000 0.000000 
-6.005929 80.950783 11.027191 0.000000 0.000000 0.000000 14.184151 -4.232660 -2.891398 -59.386459 0.556754 1.166745 75.967304 4.308446 0.492456 -35.495656 21.584246 -13.371057 0.000000 0.000000 0.000000 13.918502 -3.264200 -2.675373 -51.326785 -7.967658 -7.126608 73.714748 -8.960471 -3.626136 -39.529447 -3.165669 12.723934 0.000000 0.000000 0.000000 14.389767 -3.195011 -2.756804 -0.856694 0.036326 -0.044461 14.892054 2.137321 0.770999 1.734987 4.567447 -1.947790 0.000000 0.000000 0.000000 -2.414285 3.719173 -1.471414 3.174627 -1.394094 3.408832 0.000000 0.000000 0.000000 -1.411434 3.775808 -1.062902 5.415292 -18.060530 0.325269 -77.746063 -38.234494 -73.490131 -165.310058 -76.774816 -173.494660 0.000000 0.000000 0.000000 -2.782963 4.269485 -1.759329 4.211483 18.133232 12.915099 -66.944842 53.506445 54.058048 80.317547 60.561156 -92.907976 0.000000 0.000000 0.000000 
-6.013223 80.944138 11.032585 0.000000 0.000000 0.000000 14.152759 -4.247194 -2.881984 -59.369582 0.563626 1.167320 75.988867 4.299859 0.509041 -35.508890 21.587909 -13.375781 0.000000 0.000000 0.000000 13.888654 -3.282127 -2.665893 -51.312817 -7.963189 -7.135355 73.736591 -8.955166 -3.618797 -39.552314 -3.169674 12.714834 0.000000 0.000000 0.000000 14.359528 -3.212227 -2.746848 -0.857064 0.038198 -0.045944 14.898775 2.133379 0.769726 1.751443 4.563473 -1.948140 0.000000 0.000000 0.000000 -2.397769 3.709288 -1.473035 3.174290 -1.394080 3.405037 0.000000 0.000000 0.000000 -1.395773 3.768892 -1.061098 5.416830 -18.070666 0.365278 -77.776744 -38.145155 -73.500410 -165.233177 -76.845700 -173.392808 0.000000 0.000000 0.000000 -2.759271 4.261551 -1.762737 4.199453 18.152474 12.887977 -67.027638 53.430951 54.144477 80.150993 60.530106 -92.743532 0.000000 0.000000 0.000000 
-6.019977 80.937325 11.038887 0.000000 0.000000 0.000000 14.119534 -4.259732 -2.873951 -59.359111 0.572289 1.172064 76.021604 4.291880 0.520158 -35.520194 21.593030 -13.377004 0.000000 0.000000 0.000000 13.859177 -3.297461 -2.658056 -51.299823 -7.957719 -7.145086 73.759363 -8.946563 -3.614347 -39.563099 -3.171567 12.716404 0.000000 0.000000 0.000000 14.331110 -3.230138 -2.736671 -0.857220 0.038932 -0.046853 14.896293 2.136455 0.774120 1.773894 4.563251 -1.950896 0.000000 0.000000 0.000000 -2.375062 3.704671 -1.475870 3.178503 -1.395136 3.401894 0.000000 0.000000 0.000000 -1.382408 3.765858 -1.063031 5.412562 -18.084539 0.384548 -77.803518 -38.086586 -73.492200 -165.229926 -76.837839 -173.374544 0.000000 0.000000 0.000000 -2.734117 4.259726 -1.766462 4.185966 18.166124 12.868638 -67.101424 53.351953 54.239803 80.142072 60.520319 -92.734831 0.000000 0.000000 0.000000 
